# xmcd
#
# Track frame offsets:
#	182
#	16097
#	27935
#	45100
#	58222
#	76102
#	91097
#	105842
#	118965
#	135625
#	151502
#	164155
#	179587
#	194192
#
# Disc length: 2768 seconds
#
# Revision: 1
# Processed by: cddbd v1.5.1PL2 Copyright (c) Steve Scherf et al.
# Submitted via: audiograbber 1.83.01
#
DISCID=ab0ace0e
DTITLE=Ann Breen - Sincerely
DYEAR=1900
DGENRE=Country
TTITLE0=Sincerely
TTITLE1=Lost Again
TTITLE2=All I Have
TTITLE3=I'd Just As Soon Go
TTITLE4=Song Og Bernadette
TTITLE5=Little Things Mean A Lot
TTITLE6=Right Or Wrong
TTITLE7=Keep It A Secret
TTITLE8=Someday
TTITLE9=Sweet Sixteen
TTITLE10=The Moon Is A Harsh Mistress
TTITLE11=Years From Now
TTITLE12=I'll Never Be Lonely
TTITLE13=The End Of The World
EXTD=
EXTT0=
EXTT1=
EXTT2=
EXTT3=
EXTT4=
EXTT5=
EXTT6=
EXTT7=
EXTT8=
EXTT9=
EXTT10=
EXTT11=
EXTT12=
EXTT13=
PLAYORDER=
